<mxfile host="app.diagrams.net" agent="Mozilla/5.0 (Windows NT 10.0; Win64; x64) AppleWebKit/537.36 (KHTML, like Gecko) Chrome/133.0.0.0 Safari/537.36" version="26.1.0">
  <diagram name="Page-1" id="4TU-XoC2C1w5P19F81x-">
    <mxGraphModel dx="1323" dy="743" grid="1" gridSize="10" guides="1" tooltips="1" connect="1" arrows="1" fold="1" page="1" pageScale="1" pageWidth="850" pageHeight="1100" math="0" shadow="0">
      <root>
        <mxCell id="0" />
        <mxCell id="1" parent="0" />
        <mxCell id="1CNuRXk9MqAvNWkcRqPU-1" value="Data Collection" style="rounded=1;fillColor=#D9EAD3;" parent="1" vertex="1">
          <mxGeometry x="100" y="50" width="160" height="60" as="geometry" />
        </mxCell>
        <mxCell id="1CNuRXk9MqAvNWkcRqPU-2" value="PreprocessingÂ " style="rounded=1;fillColor=#A4C2F4;" parent="1" vertex="1">
          <mxGeometry x="100" y="150" width="160" height="60" as="geometry" />
        </mxCell>
        <mxCell id="8xUTGga6Zl1xwBH4XTY2-2" style="edgeStyle=orthogonalEdgeStyle;rounded=0;orthogonalLoop=1;jettySize=auto;html=1;exitX=1;exitY=0;exitDx=0;exitDy=0;" edge="1" parent="1" source="1CNuRXk9MqAvNWkcRqPU-3">
          <mxGeometry relative="1" as="geometry">
            <mxPoint x="250" y="230" as="targetPoint" />
          </mxGeometry>
        </mxCell>
        <mxCell id="1CNuRXk9MqAvNWkcRqPU-3" value="Feature Extraction" style="rounded=1;fillColor=#F6B26B;" parent="1" vertex="1">
          <mxGeometry x="100" y="250" width="160" height="60" as="geometry" />
        </mxCell>
        <mxCell id="1CNuRXk9MqAvNWkcRqPU-4" value="Model Training" style="rounded=1;fillColor=#E06666;" parent="1" vertex="1">
          <mxGeometry x="100" y="350" width="160" height="60" as="geometry" />
        </mxCell>
        <mxCell id="1CNuRXk9MqAvNWkcRqPU-5" value="Prediction" style="rounded=1;fillColor=#FFD966;" parent="1" vertex="1">
          <mxGeometry x="530" y="360" width="160" height="140" as="geometry" />
        </mxCell>
        <mxCell id="8xUTGga6Zl1xwBH4XTY2-3" value="" style="edgeStyle=orthogonalEdgeStyle;rounded=0;orthogonalLoop=1;jettySize=auto;html=1;" edge="1" parent="1" source="1CNuRXk9MqAvNWkcRqPU-7">
          <mxGeometry relative="1" as="geometry">
            <mxPoint x="180" y="610" as="targetPoint" />
          </mxGeometry>
        </mxCell>
        <mxCell id="1CNuRXk9MqAvNWkcRqPU-7" value="User Fact-Check" style="rounded=1;fillColor=#76A5AF;" parent="1" vertex="1">
          <mxGeometry x="100" y="520" width="160" height="60" as="geometry" />
        </mxCell>
        <mxCell id="1CNuRXk9MqAvNWkcRqPU-8" parent="1" source="1CNuRXk9MqAvNWkcRqPU-1" target="1CNuRXk9MqAvNWkcRqPU-2" edge="1">
          <mxGeometry relative="1" as="geometry" />
        </mxCell>
        <mxCell id="1CNuRXk9MqAvNWkcRqPU-9" parent="1" source="1CNuRXk9MqAvNWkcRqPU-2" target="1CNuRXk9MqAvNWkcRqPU-3" edge="1">
          <mxGeometry relative="1" as="geometry" />
        </mxCell>
        <mxCell id="1CNuRXk9MqAvNWkcRqPU-10" parent="1" source="1CNuRXk9MqAvNWkcRqPU-3" target="1CNuRXk9MqAvNWkcRqPU-4" edge="1">
          <mxGeometry relative="1" as="geometry" />
        </mxCell>
        <mxCell id="1CNuRXk9MqAvNWkcRqPU-11" parent="1" source="1CNuRXk9MqAvNWkcRqPU-4" target="1CNuRXk9MqAvNWkcRqPU-5" edge="1">
          <mxGeometry relative="1" as="geometry" />
        </mxCell>
        <mxCell id="1CNuRXk9MqAvNWkcRqPU-12" parent="1" source="1CNuRXk9MqAvNWkcRqPU-5" edge="1">
          <mxGeometry relative="1" as="geometry">
            <mxPoint x="260" y="552.0930232558139" as="targetPoint" />
          </mxGeometry>
        </mxCell>
        <mxCell id="1CNuRXk9MqAvNWkcRqPU-13" parent="1" target="1CNuRXk9MqAvNWkcRqPU-7" edge="1">
          <mxGeometry relative="1" as="geometry">
            <mxPoint x="180" y="610" as="sourcePoint" />
          </mxGeometry>
        </mxCell>
        <mxCell id="1CNuRXk9MqAvNWkcRqPU-14" value="&#xa;  &#xa;    &#xa;    &#xa;    &#xa;    &#xa;    &#xa;      &#xa;    &#xa;    &#xa;    &#xa;    &#xa;      &#xa;    &#xa;    &#xa;    &#xa;    &#xa;      &#xa;    &#xa;    &#xa;    &#xa;    &#xa;      &#xa;    &#xa;    &#xa;    &#xa;    &#xa;      &#xa;    &#xa;    &#xa;    &#xa;    &#xa;      &#xa;    &#xa;    &#xa;    &#xa;    &#xa;      &#xa;    &#xa;    &#xa;    &#xa;    &#xa;      &#xa;    &#xa;    &#xa;    &#xa;    &#xa;      &#xa;    &#xa;    &#xa;      &#xa;    &#xa;    &#xa;      &#xa;    &#xa;    &#xa;      &#xa;    &#xa;    &#xa;      &#xa;    &#xa;    &#xa;      &#xa;    &#xa;    &#xa;      &#xa;    &#xa;  &#xa;" style="text;whiteSpace=wrap;html=1;" parent="1" vertex="1">
          <mxGeometry width="30" height="1000" as="geometry" />
        </mxCell>
        <mxCell id="8xUTGga6Zl1xwBH4XTY2-1" value="&#xa;  &#xa;    &#xa;    &#xa;    &#xa;    &#xa;    &#xa;      &#xa;    &#xa;    &#xa;    &#xa;    &#xa;      &#xa;    &#xa;    &#xa;    &#xa;    &#xa;      &#xa;    &#xa;    &#xa;    &#xa;    &#xa;      &#xa;    &#xa;    &#xa;    &#xa;    &#xa;      &#xa;    &#xa;    &#xa;    &#xa;    &#xa;      &#xa;    &#xa;    &#xa;    &#xa;    &#xa;      &#xa;    &#xa;    &#xa;    &#xa;    &#xa;      &#xa;    &#xa;    &#xa;    &#xa;    &#xa;      &#xa;    &#xa;    &#xa;      &#xa;    &#xa;    &#xa;      &#xa;    &#xa;    &#xa;      &#xa;    &#xa;    &#xa;      &#xa;    &#xa;    &#xa;      &#xa;    &#xa;    &#xa;      &#xa;    &#xa;  &#xa;" style="text;whiteSpace=wrap;html=1;" vertex="1" parent="1">
          <mxGeometry width="30" height="1000" as="geometry" />
        </mxCell>
      </root>
    </mxGraphModel>
  </diagram>
</mxfile>
